<?xml version="1.0" standalone="no"?>
<!DOCTYPE svg PUBLIC "-//W3C//DTD SVG 20010904//EN"
 "http://www.w3.org/TR/2001/REC-SVG-20010904/DTD/svg10.dtd">
<svg version="1.0" xmlns="http://www.w3.org/2000/svg"
 width="4166.000000pt" height="4166.000000pt" viewBox="0 0 4166.000000 4166.000000"
 preserveAspectRatio="xMidYMid meet">
<metadata>
Created by potrace 1.16, written by Peter Selinger 2001-2019
</metadata>
<rect x="6865.493" y="-36766.454" width="26247.669" height="30964.776" style="fill: #f7f7f7; stroke: rgb(0, 0, 0);" transform="matrix(0.1, 0, 0, 0.1, 0, 4166)"></rect>
<g transform="translate(0.000000,4166.000000) scale(0.100000,-0.100000)"
fill="#262626" stroke="#f7f7f7">
<path d="M0 20830 l0 -20830 20830 0 20830 0 0 20830 0 20830 -20830 0 -20830
0 0 -20830z m13853 12422 c245 -372 366 -558 655 -1000 316 -483 347 -530 787
-1202 209 -319 420 -642 470 -717 49 -76 169 -259 267 -408 97 -148 213 -326
258 -395 83 -128 236 -360 840 -1283 368 -562 451 -690 580 -887 45 -69 207
-316 360 -550 153 -234 315 -481 360 -550 45 -69 249 -381 455 -695 205 -313
480 -733 610 -932 l236 -361 -146 -224 c-81 -122 -228 -348 -328 -500 -100
-153 -265 -405 -367 -560 -101 -156 -288 -440 -414 -633 -126 -192 -281 -429
-343 -525 -63 -96 -162 -247 -220 -335 -58 -88 -211 -322 -340 -520 -130 -198
-423 -646 -651 -995 -229 -349 -477 -728 -551 -842 -75 -115 -296 -452 -491
-750 -195 -299 -418 -640 -496 -758 -77 -118 -176 -269 -219 -335 -73 -111
-320 -490 -1080 -1650 -165 -253 -327 -502 -360 -552 l-60 -93 -2018 0 c-1612
0 -2017 3 -2011 13 9 14 380 582 797 1219 100 153 252 384 337 515 85 131 209
320 275 420 66 100 154 236 197 300 42 65 190 291 329 503 138 212 286 437
327 500 41 63 128 196 193 295 394 601 697 1064 759 1160 39 61 158 243 265
405 106 162 268 410 360 550 92 140 321 491 510 780 189 289 419 640 510 780
92 140 330 505 530 810 200 305 428 653 507 774 79 120 147 226 151 235 7 13
-17 57 -96 177 -57 87 -208 319 -336 514 -128 195 -276 421 -329 502 -54 81
-182 278 -287 438 -104 160 -352 538 -550 840 -198 303 -394 602 -435 665 -73
112 -501 766 -805 1230 -83 127 -176 268 -207 315 -108 166 -1184 1811 -1333
2038 -50 75 -185 281 -300 457 -115 176 -374 572 -575 880 -202 308 -457 697
-566 865 -110 168 -208 317 -218 333 l-18 27 2018 0 2019 0 188 -288z m11442
265 c258 -27 633 -82 858 -128 721 -144 1417 -395 2054 -740 662 -358 1176
-742 1713 -1279 628 -628 1121 -1346 1487 -2165 367 -823 572 -1692 623 -2645
25 -459 1 -938 -71 -1450 -192 -1354 -792 -2675 -1687 -3715 -197 -229 -510
-547 -722 -736 -294 -262 -714 -571 -1057 -777 -1005 -607 -2058 -945 -3263
-1049 -162 -14 -517 -17 -2907 -20 l-2723 -4 0 1616 0 1615 2513 0 c1496 0
2595 4 2717 10 676 33 1296 210 1885 540 273 153 578 381 817 609 363 347 675
787 889 1251 181 394 285 767 346 1245 25 195 25 759 0 950 -89 675 -301 1254
-652 1785 -96 145 -140 204 -289 391 -86 108 -424 440 -551 542 -361 288 -752
516 -1125 654 -352 130 -592 189 -1015 250 -112 16 -408 17 -4192 20 l-4073 3
0 1625 0 1625 4128 -3 c3837 -3 4139 -4 4297 -20z m-13793 -22482 c362 -63
677 -297 843 -625 170 -338 168 -722 -6 -1060 -62 -121 -125 -205 -231 -306
-171 -165 -374 -269 -599 -308 -103 -18 -93 -18 -801 -17 l-578 1 0 1165 0
1165 644 0 c521 0 659 -3 728 -15z m1728 -1150 l0 -1165 -215 0 -215 0 0 1165
0 1165 215 0 215 0 0 -1165z m2660 955 l0 -210 -872 0 c-825 0 -875 -1 -913
-19 -49 -22 -93 -65 -111 -108 -10 -22 -14 -75 -14 -163 l0 -130 748 -2 747
-3 3 -207 2 -208 -750 0 -750 0 0 -244 c0 -135 4 -256 9 -269 16 -40 73 -99
116 -118 38 -18 90 -19 913 -19 l872 0 0 -210 0 -210 -898 0 c-992 0 -950 -2
-1087 65 -159 77 -284 230 -333 408 -15 56 -17 127 -17 692 0 571 2 636 18
694 30 109 83 198 172 286 89 89 153 128 265 162 l75 22 903 0 902 1 0 -210z
m2480 0 l0 -209 -652 -3 -653 -3 -70 -24 c-329 -110 -535 -384 -535 -711 0
-199 73 -378 210 -520 97 -99 187 -155 325 -201 68 -23 81 -23 513 -27 l442
-3 0 220 0 221 -375 0 -375 0 0 210 0 210 585 0 585 0 0 -640 0 -641 -677 3
-678 4 -98 26 c-215 59 -377 151 -532 303 -177 173 -278 358 -331 607 -24 113
-25 334 -1 445 90 423 377 750 776 883 169 57 188 58 894 59 l647 1 0 -210z
m1626 195 c232 -41 449 -154 622 -324 407 -401 459 -1055 120 -1512 -118 -160
-249 -268 -433 -360 -165 -81 -277 -109 -465 -116 -220 -8 -378 25 -567 117
-340 167 -582 496 -638 867 -77 513 187 1009 656 1232 86 41 224 85 314 100
85 15 296 12 391 -4z m4520 -16 c200 -73 356 -247 409 -454 19 -77 19 -224 -1
-300 -57 -220 -238 -405 -451 -460 -47 -12 -156 -15 -635 -15 l-578 0 0 -535
0 -535 -215 0 -215 0 0 1165 0 1166 808 -3 807 -3 71 -26z m1639 -631 c186
-365 401 -787 478 -938 77 -151 191 -374 254 -494 62 -121 113 -223 113 -228
0 -4 -105 -8 -234 -8 l-235 0 -84 163 c-123 236 -261 506 -457 892 -95 187
-174 341 -176 343 -1 2 -54 -97 -117 -220 -150 -291 -404 -788 -514 -1005
l-88 -173 -237 0 c-131 0 -238 3 -238 6 0 3 33 70 74 148 40 77 125 242 188
366 64 124 179 349 256 500 256 500 492 963 580 1138 48 94 90 172 93 172 3 0
158 -298 344 -662z m1465 -503 l0 -1165 -210 0 -210 0 0 1165 0 1165 210 0
210 0 0 -1165z m700 1097 c72 -140 323 -630 495 -967 98 -192 181 -353 184
-357 6 -7 36 49 354 672 96 190 219 428 271 530 l95 185 241 3 241 2 -69 -132
c-38 -73 -127 -245 -197 -383 -70 -137 -171 -335 -225 -440 -54 -104 -178
-347 -276 -540 -368 -724 -423 -830 -431 -832 -4 -2 -13 7 -18 20 -14 28 -397
782 -520 1022 -51 99 -149 290 -217 425 -69 135 -196 383 -283 553 l-157 307
239 0 238 0 35 -68z m2780 -624 c194 -381 388 -760 430 -843 178 -346 400
-783 400 -789 0 -3 -106 -6 -235 -6 l-235 0 -35 68 c-110 215 -462 901 -562
1099 -65 128 -121 229 -124 225 -4 -4 -70 -131 -147 -282 -78 -151 -197 -385
-267 -520 -69 -135 -165 -323 -213 -417 l-87 -173 -237 0 c-131 0 -238 3 -238
6 0 3 26 56 59 118 32 61 185 359 339 661 154 303 346 678 426 835 80 157 194
381 254 497 59 117 110 213 113 213 4 0 165 -312 359 -692z"/>
<path d="M10552 9888 l3 -743 420 -3 c391 -2 425 -1 500 18 214 53 393 197
489 394 58 120 77 203 77 335 -1 157 -37 277 -124 408 -92 139 -222 237 -392
296 l-90 32 -443 3 -442 3 2 -743z"/>
<path d="M19668 10620 c-209 -35 -407 -173 -518 -360 -113 -189 -132 -442 -50
-647 108 -270 362 -453 650 -470 223 -13 425 69 582 236 86 91 149 203 179
317 29 108 29 269 0 377 -57 215 -228 413 -429 497 -126 53 -283 72 -414 50z"/>
<path d="M23260 10415 l0 -216 554 3 553 3 52 35 c118 80 134 227 35 326 -31
32 -54 44 -93 53 -34 7 -229 11 -576 11 l-525 0 0 -215z"/>
</g>
</svg>
